<svg xmlns="http://www.w3.org/2000/svg" width="24" height="24" fill="none" viewBox="0 0 24 24">
  <path fill="#4C4AEF" d="M21 10.75h-1a.75.75 0 1 1 0-1.5h1a.253.253 0 0 0 .25-.25V3a.253.253 0 0 0-.25-.25H3a.253.253 0 0 0-.25.25v6a.253.253 0 0 0 .25.25h3a.75.75 0 0 1 0 1.5H3A1.752 1.752 0 0 1 1.25 9V3A1.752 1.752 0 0 1 3 1.25h18A1.752 1.752 0 0 1 22.75 3v6A1.752 1.752 0 0 1 21 10.75Z"/>
  <path fill="#4C4AEF" d="M17 22.75H7A1.752 1.752 0 0 1 5.25 21V9a.75.75 0 0 1 1.5 0v12a.25.25 0 0 0 .25.25h10a.25.25 0 0 0 .25-.25V6.75H6a.75.75 0 0 1 0-1.5h12a.75.75 0 0 1 .75.75v15A1.752 1.752 0 0 1 17 22.75Z"/>
  <path fill="#4C4AEF" d="M12 14.75a2.25 2.25 0 1 1 2.25-2.25.75.75 0 1 1-1.5 0 .75.75 0 1 0-.75.75.75.75 0 1 1 0 1.5Z"/>
  <path fill="#4C4AEF" d="M12 17.75a2.253 2.253 0 0 1-2.25-2.25.75.75 0 1 1 1.5 0 .75.75 0 1 0 .75-.75.75.75 0 1 1 0-1.5 2.25 2.25 0 0 1 0 4.5Zm0-6a.75.75 0 0 1-.75-.75v-1a.75.75 0 1 1 1.5 0v1a.75.75 0 0 1-.75.75Z"/>
  <path fill="#4C4AEF" d="M12 18.75a.75.75 0 0 1-.75-.75v-1a.75.75 0 1 1 1.5 0v1a.75.75 0 0 1-.75.75Zm7-12H5a.75.75 0 0 1 0-1.5h14a.75.75 0 1 1 0 1.5Z"/>
</svg>
