<svg xmlns="http://www.w3.org/2000/svg" width="25" height="24" fill="none" viewBox="0 0 25 24">
  <path fill="#4C4AEF" d="M22.538 9.38a.906.906 0 0 0 .067-.576.97.97 0 0 0-.3-.513L17.86 4.294A1.182 1.182 0 0 0 17.07 4c-.295 0-.579.106-.788.294a.955.955 0 0 0-.327.71c0 .266.118.52.327.709L19.125 8H3.736c-.294 0-.577.106-.786.293A.951.951 0 0 0 2.625 9a.95.95 0 0 0 .325.706c.209.188.492.293.786.293h17.78a1.2 1.2 0 0 0 .615-.17c.182-.11.324-.267.407-.45ZM8.97 19.287 6.125 17h15.389c.295 0 .577-.106.786-.293a.951.951 0 0 0 .325-.707.951.951 0 0 0-.325-.706 1.177 1.177 0 0 0-.786-.293H3.736a1.2 1.2 0 0 0-.615.17 1.03 1.03 0 0 0-.407.45.768.768 0 0 0-.089.38c0 .13.027.261.083.383a.998.998 0 0 0 .24.326l4.444 3.997c.103.093.226.167.362.218a1.225 1.225 0 0 0 .854 0 1.13 1.13 0 0 0 .362-.218c.103-.093.185-.204.241-.325a.917.917 0 0 0 0-.768 1.004 1.004 0 0 0-.241-.326Z"/>
</svg>
