<svg xmlns="http://www.w3.org/2000/svg" width="21" height="20" fill="none" viewBox="0 0 21 20">
  <path fill="#fff" fill-rule="evenodd" d="M9.309 0a4.435 4.435 0 0 1 4.43 4.226l.005.209v.933a.75.75 0 0 1-1.493.102l-.007-.102v-.933a2.935 2.935 0 0 0-2.763-2.93L9.31 1.5H4.434a2.935 2.935 0 0 0-2.929 2.763l-.005.172v11.13a2.935 2.935 0 0 0 2.762 2.93l.172.005h4.885a2.925 2.925 0 0 0 2.92-2.752l.005-.172v-.943a.75.75 0 0 1 1.493-.102l.007.102v.943a4.425 4.425 0 0 1-4.21 4.419L9.318 20H4.434a4.435 4.435 0 0 1-4.43-4.226L0 15.565V4.435A4.435 4.435 0 0 1 4.225.005L4.434 0h4.875Zm10.997 9.458a.748.748 0 0 1-.004 1.088l-2.914 2.901a.75.75 0 0 1-1.13-.979l.072-.084 1.64-1.634H7.747a.75.75 0 0 1-.102-1.493l.102-.007h10.225L16.33 7.616a.75.75 0 0 1-.075-.976l.073-.084a.75.75 0 0 1 .976-.075l.084.072 2.918 2.905Z" clip-rule="evenodd"/>
</svg>
