<svg xmlns="http://www.w3.org/2000/svg" width="16" height="20" fill="none" viewBox="0 0 16 20">
  <path fill="#fff" fill-rule="evenodd" d="M8.004 0C5.07 0 2.692 2.389 2.692 5.335c0 2.947 2.378 5.335 5.312 5.335s5.313-2.388 5.313-5.335C13.317 2.39 10.938 0 8.004 0Zm0 1.448a3.88 3.88 0 0 1 3.871 3.887 3.88 3.88 0 0 1-3.87 3.888 3.88 3.88 0 0 1-3.872-3.888 3.88 3.88 0 0 1 3.871-3.887ZM5.83 12.82a16.72 16.72 0 0 0-2.34.331C1.995 13.46.798 14.076.288 15.1a2.93 2.93 0 0 0-.007 2.515c.49 1.012 1.548 1.585 2.976 1.902l.256.053c.754.17 1.54.285 2.332.339.068.02.229.038.404.047l.144.006.284.002c1.138.062 2.317.044 3.492-.056a15.658 15.658 0 0 0 1.88-.244l.467-.097c1.543-.305 2.698-.883 3.204-1.95a2.927 2.927 0 0 0 0-2.504c-.505-1.065-1.645-1.639-3.216-1.962a16.926 16.926 0 0 0-1.872-.291l-.461-.04a24.685 24.685 0 0 0-4.34 0Zm4.214 1.442.012.001c.724.05 1.443.152 2.153.304 1.166.24 1.958.639 2.208 1.167.189.398.189.86 0 1.26-.234.493-.945.874-1.973 1.107l-.225.048c-.723.161-1.44.265-2.161.315-1.12.095-2.233.112-3.343.052l-.394-.007a1.941 1.941 0 0 1-.287-.033 15.523 15.523 0 0 1-1.874-.249l-.352-.074c-1.17-.23-1.969-.63-2.228-1.165a1.475 1.475 0 0 1 .001-1.251c.252-.506 1.098-.94 2.205-1.169a15.39 15.39 0 0 1 2.157-.305 23.303 23.303 0 0 1 4.1-.001Z" clip-rule="evenodd"/>
</svg>
