<svg xmlns="http://www.w3.org/2000/svg" width="22" height="19" fill="none" viewBox="0 0 22 19">
  <path fill="#fff" fill-rule="evenodd" d="M8.145 1.627a.722.722 0 0 0-.73-.715L5.782.913l-.198.005c-2.092.103-3.755 1.8-3.755 3.877v1.867l.007.097c.048.35.353.618.722.618.403 0 .73-.32.73-.715V4.795l.004-.155c.081-1.28 1.165-2.295 2.491-2.296l1.633-.001.1-.007a.72.72 0 0 0 .629-.709ZM16.21.912c2.114 0 3.853 1.643 3.956 3.694l.005.193v1.863a.722.722 0 0 1-.729.715.725.725 0 0 1-.722-.618l-.007-.097V4.799c0-1.297-1.043-2.37-2.346-2.451l-.157-.005h-1.598a.722.722 0 0 1-.73-.715.72.72 0 0 1 .63-.71l.1-.006h1.598Zm5.06 9.076c.404 0 .73.32.73.715a.72.72 0 0 1-.63.709l-.1.006h-1.099v3.607c0 2.074-1.675 3.78-3.764 3.882l-.197.005h-1.598a.722.722 0 0 1-.73-.715.72.72 0 0 1 .63-.71l.1-.006h1.598c1.322 0 2.416-1.024 2.498-2.302l.005-.154v-3.607H3.287v3.61c0 1.302 1.033 2.366 2.338 2.447l.158.005 1.633.001c.403 0 .73.321.729.716a.72.72 0 0 1-.63.709l-.1.006H5.781c-2.117-.003-3.844-1.637-3.947-3.69l-.005-.193v-3.61h-1.1A.722.722 0 0 1 0 10.702a.72.72 0 0 1 .63-.709l.1-.006h20.54Z" clip-rule="evenodd"/>
</svg>
